<?xml version="1.0" encoding="utf-8"?>
<!-- Generator: Adobe Illustrator 22.1.0, SVG Export Plug-In . SVG Version: 6.00 Build 0)  -->
<svg version="1.1" id="Layer_2" xmlns="http://www.w3.org/2000/svg" xmlns:xlink="http://www.w3.org/1999/xlink" x="0px" y="0px"
	 viewBox="0 0 64 64" style="enable-background:new 0 0 64 64;" xml:space="preserve">
<style type="text/css">
	.st0{fill:#E74C3C;}
</style>
<polygon class="st0" points="60,12.4 60,12 60,8 56,8 56,4 52,4 48,4 44,4 40,4 40,8 36,8 36,12 32,12 28,12 28,8 24,8 24,4 20,4 
	16,4 12,4 8,4 8,8 4,8 4,12 0,12 0,16 0,20 0,28 0,32 4,32 4,36 8,36 8,40 12,40 12,44 16,44 16,48 20,48 20,52 24,52 24,56 28,56 
	28,60 36,60 36,56 40,56 40,52 44,52 44,48 48,48 48,44 52,44 52,40 56,40 56,36 60,36 60,32 64,32 64,16 64,12.4 "/>
</svg>
